<?xml version="1.0" standalone="no"?>
<!DOCTYPE svg PUBLIC "-//W3C//DTD SVG 20010904//EN"
 "http://www.w3.org/TR/2001/REC-SVG-20010904/DTD/svg10.dtd">
<svg version="1.0" xmlns="http://www.w3.org/2000/svg"
 width="261.000000pt" height="261.000000pt" viewBox="0 0 261.000000 261.000000"
 preserveAspectRatio="xMidYMid meet">
<metadata>
Created by potrace 1.14, written by Peter Selinger 2001-2017
</metadata>
<g transform="translate(0.000000,261.000000) scale(0.100000,-0.100000)"
fill="#000000" stroke="none">
<path d="M1110 2594 c-482 -77 -881 -415 -1035 -877 -46 -139 -65 -256 -65
-407 0 -360 126 -666 380 -920 192 -193 399 -304 673 -361 128 -26 339 -28
472 -4 780 140 1255 936 1008 1690 -144 442 -521 773 -988 870 -114 24 -328
28 -445 9z m453 -298 c18 -7 47 -29 64 -49 54 -61 57 -145 8 -219 l-26 -39 28
-79 28 -78 42 -7 c58 -8 104 -42 131 -95 41 -83 18 -177 -58 -228 -43 -28 -45
-36 -54 -139 -5 -68 -4 -83 8 -83 23 0 84 -76 96 -121 29 -107 -62 -219 -178
-219 -29 0 -90 25 -116 48 -27 24 -56 91 -56 131 0 72 76 171 132 171 12 0 18
8 19 23 0 12 3 53 8 90 7 68 7 69 -18 79 -65 24 -113 97 -113 168 0 52 12 81
49 122 l25 26 -28 81 -29 81 -37 0 c-52 0 -86 15 -125 57 l-34 36 -52 -11
c-29 -7 -75 -17 -103 -22 -50 -11 -52 -12 -58 -51 -7 -45 -60 -110 -106 -129
-50 -21 -134 -8 -178 27 -75 60 -87 170 -27 249 61 81 195 86 264 10 29 -31
26 -31 149 -5 l100 21 5 34 c17 101 139 163 240 120z m500 -120 c45 -18 84
-67 92 -114 7 -46 -17 -115 -48 -137 -20 -14 -20 -17 -8 -67 16 -64 26 -78 56
-78 65 0 135 -100 121 -174 -9 -46 -57 -101 -100 -116 -32 -10 -34 -14 -45
-84 l-12 -73 34 -34 c66 -66 67 -154 3 -217 -29 -30 -43 -36 -89 -40 -63 -5
-104 12 -137 58 -58 81 -24 186 75 231 27 13 31 21 41 86 l13 72 -34 34 c-61
61 -65 151 -10 211 l25 27 -18 62 c-17 58 -20 62 -55 70 -21 5 -51 22 -67 39
-117 116 11 308 163 244z m-1583 -404 c54 -27 82 -76 79 -140 l-3 -54 71 -54
c70 -52 72 -53 100 -39 88 46 207 -19 219 -121 7 -51 -29 -121 -75 -148 -66
-38 -157 -17 -205 47 -15 20 -21 45 -23 85 l-1 57 -71 54 c-68 51 -72 53 -101
41 -40 -17 -111 -8 -148 18 -42 30 -65 85 -59 138 11 106 121 165 217 116z
m773 -66 c68 -29 106 -105 88 -173 -12 -44 -62 -96 -105 -110 -30 -9 -30 -12
-79 -227 l-50 -217 33 -34 c27 -28 34 -44 38 -88 3 -36 -1 -63 -11 -83 -15
-29 -15 -29 90 -174 74 -102 110 -144 121 -141 56 12 122 5 150 -16 l29 -21
132 132 131 132 -11 32 c-22 63 15 147 78 177 25 12 51 16 85 13 122 -12 178
-167 91 -250 -46 -44 -125 -62 -163 -38 -12 7 -47 -23 -162 -137 -81 -81 -145
-150 -142 -155 11 -18 -18 -86 -51 -118 -30 -29 -43 -34 -92 -38 -49 -3 -64 0
-93 20 -48 33 -78 105 -64 156 10 38 10 39 -101 193 -108 148 -113 154 -144
151 -106 -11 -193 95 -162 197 13 45 47 78 97 96 l38 13 50 215 49 216 -30 28
c-60 56 -67 144 -16 204 47 55 113 72 176 45z m-716 -597 c92 -34 137 -143 98
-236 -15 -35 -15 -38 10 -72 15 -20 43 -60 63 -88 l37 -53 45 6 c78 10 148
-29 181 -101 25 -54 24 -102 -3 -155 -54 -106 -189 -129 -276 -47 -55 51 -70
134 -37 206 l17 40 -62 86 c-52 72 -65 85 -82 79 -34 -10 -93 -6 -130 9 -89
37 -126 162 -74 250 42 72 135 106 213 76z"/>
<path d="M1452 2184 c-28 -19 -30 -74 -4 -97 25 -23 68 -21 92 3 58 58 -20
142 -88 94z"/>
<path d="M902 2054 c-28 -19 -30 -74 -4 -97 40 -36 112 -6 112 46 0 30 -35 67
-63 67 -12 0 -33 -7 -45 -16z"/>
<path d="M1637 1692 c-49 -54 18 -137 78 -98 55 36 35 116 -29 116 -19 0 -40
-8 -49 -18z"/>
<path d="M1606 1158 c-23 -32 -20 -55 10 -84 42 -43 104 -15 104 47 0 37 -24
59 -65 59 -24 0 -39 -7 -49 -22z"/>
<path d="M430 990 c-25 -25 -26 -72 -2 -93 40 -36 112 -6 112 46 0 29 -39 67
-68 67 -12 0 -31 -9 -42 -20z"/>
<path d="M782 548 c-43 -21 -42 -96 3 -116 43 -20 95 14 95 63 0 19 -44 65
-62 64 -7 0 -23 -5 -36 -11z"/>
</g>
</svg>
